<?xml version="1.0" standalone="no"?>
<!DOCTYPE svg PUBLIC "-//W3C//DTD SVG 20010904//EN"
 "http://www.w3.org/TR/2001/REC-SVG-20010904/DTD/svg10.dtd">
<svg version="1.0" xmlns="http://www.w3.org/2000/svg"
 width="317.000000pt" height="333.000000pt" viewBox="0 0 317.000000 333.000000"
 preserveAspectRatio="xMidYMid meet">

<g transform="translate(0.000000,333.000000) scale(0.100000,-0.100000)"
fill="#000000" stroke="none">
<path d="M1960 1670 l0 -730 150 0 150 0 0 55 0 54 -92 3 -93 3 -3 673 -2 672
-55 0 -55 0 0 -730z"/>
<path d="M1042 2321 l-52 -68 0 -593 0 -592 52 -64 51 -64 88 0 88 0 45 59 46
59 0 362 0 361 -87 -3 -88 -3 -3 -52 -3 -52 33 -3 33 -3 3 -299 c1 -165 -1
-303 -6 -308 -4 -4 -36 -5 -70 -2 l-62 7 0 603 0 604 70 0 70 0 0 -90 0 -90
55 0 55 0 0 85 c0 83 -1 87 -42 150 l-43 65 -90 0 -90 0 -53 -69z"/>
<path d="M1487 2383 c-4 -3 -7 -24 -7 -45 l0 -38 65 0 65 0 0 -680 0 -680 55
0 55 0 2 678 3 677 63 3 62 3 0 44 0 45 -178 0 c-98 0 -182 -3 -185 -7z"/>
</g>
</svg>
